<svg xmlns="http://www.w3.org/2000/svg" viewBox="0 0 64 64" width="64" height="64">
  <rect width="64" height="64" rx="12" fill="#3c2817"/>
  <!-- Coffee cup silhouette with steam -->
  <path d="M16 24h26a6 6 0 0 1 0 12h-2v5a8 8 0 0 1-8 8h-8a8 8 0 0 1-8-8V24z" fill="#faf6ee"/>
  <path d="M40 28h2a3 3 0 0 1 0 6h-2v-6z" fill="#3c2817"/>
  <!-- steam wisps in copper -->
  <path d="M22 8c0 3 2 4 2 7 0 2-1 3-1 4M30 8c0 3 2 4 2 7 0 2-1 3-1 4M38 8c0 3 2 4 2 7 0 2-1 3-1 4" stroke="#b87333" stroke-width="2.6" fill="none" stroke-linecap="round"/>
</svg>
